<?xml version="1.0" encoding="utf-8"?><!-- Uploaded to: SVG Repo, www.svgrepo.com, Generator: SVG Repo Mixer Tools -->
<svg width="800px" height="800px" viewBox="0 0 24 24" fill="none" xmlns="http://www.w3.org/2000/svg">
<path d="M3 3H5M21 3H19M12 18L7 21M12 18L17 21M12 18V21M12 18V15M19 3V11.8C19 12.9201 19 13.4802 18.782 13.908C18.5903 14.2843 18.2843 14.5903 17.908 14.782C17.4802 15 16.9201 15 15.8 15H12M19 3H5M5 3V11.8C5 12.9201 5 13.4802 5.21799 13.908C5.40973 14.2843 5.71569 14.5903 6.09202 14.782C6.51984 15 7.0799 15 8.2 15H12M8 10L11 7L13 10L16 7" stroke="#000000" stroke-width="2" stroke-linecap="round" stroke-linejoin="round"/>
</svg>