<?xml version="1.0" encoding="iso-8859-1"?>
<!-- Uploaded to: SVG Repo, www.svgrepo.com, Generator: SVG Repo Mixer Tools -->
<svg fill="#000000" height="800px" width="800px" version="1.1" id="Layer_1" xmlns="http://www.w3.org/2000/svg" xmlns:xlink="http://www.w3.org/1999/xlink" 
	 viewBox="0 0 511.999 511.999" xml:space="preserve">
<g>
	<g>
		<polygon points="166.311,274.253 142.176,250.117 98.051,294.24 142.176,338.365 166.311,314.229 146.323,294.24 		"/>
	</g>
</g>
<g>
	<g>
		<path d="M497.044,288.149l-42.856-42.856c8.762-19.715,12.94-41.332,12.025-63.52c-1.562-37.957-17.813-73.033-45.758-98.768
			c-57.688-53.125-147.839-49.414-200.961,8.274c-21.845,23.72-34.733,53.457-37.176,85.121H16.796v201.549H0v43.073
			c0,25.095,20.416,45.511,45.511,45.511h295.822c25.095,0,45.511-20.416,45.511-45.511v-43.073h-16.796v-55.665
			c3.983-1.353,7.897-2.881,11.735-4.582l42.853,42.854c9.644,9.646,22.501,14.955,36.203,14.955s26.56-5.312,36.203-14.955
			c0,0,0,0,0.001-0.001c9.644-9.644,14.955-22.501,14.955-36.203C512,310.648,506.689,297.791,497.044,288.149z M50.929,210.533
			h132.803c1.196,7.424,2.971,14.69,5.293,21.75l-25.79,122.508h34.881l16.166-76.786c4.135,5.003,8.63,9.764,13.487,14.238
			c2.579,2.376,5.232,4.641,7.947,6.803l-15.184,15.185l24.136,24.136l21.007-21.007c18.145,8.195,37.924,12.492,58.294,12.492
			c1.992,0,3.992-0.041,5.994-0.123c1.993-0.082,3.977-0.214,5.952-0.377v48.598H50.929V210.533z M352.711,421.022
			c0,6.274-5.104,11.378-11.378,11.378H45.511c-6.274,0-11.378-5.104-11.378-11.378v-8.94h318.578V421.022z M328.558,295.621
			c-28.82,1.213-56.43-8.929-77.668-28.488c-21.237-19.557-33.587-46.215-34.775-75.063c-1.187-28.847,8.93-56.43,28.489-77.668
			c21.279-23.106,50.371-34.818,79.552-34.818c26.186,0,52.444,9.434,73.178,28.53c21.238,19.557,33.588,46.215,34.775,75.063
			c1.188,28.847-8.929,56.432-28.488,77.669C384.065,282.083,357.407,294.434,328.558,295.621z M472.909,336.419v0.002
			c-6.655,6.656-17.481,6.656-24.136,0l-36.873-36.874c5.959-4.693,11.592-9.888,16.831-15.577c2.555-2.775,4.983-5.637,7.291-8.57
			l36.887,36.887c3.197,3.197,4.957,7.481,4.957,12.066C477.867,328.938,476.105,333.222,472.909,336.419z"/>
	</g>
</g>
<g>
	<g>
		<path d="M370.024,164.6v-16.317c0.137-25.139-20.202-45.701-45.342-45.839c-0.084,0-0.166,0-0.25,0
			c-25.022,0-45.451,20.289-45.587,45.369l-0.065,16.36l-9.686-0.046l-0.497,91.407l110.51,0.603l0.527-91.493L370.024,164.6z
			 M312.978,147.972c0.033-6.19,5.276-11.395,11.46-11.395c0.021,0,0.039,0,0.059,0c6.21,0.033,11.428,5.309,11.394,11.612v16.25
			l-22.976-0.107L312.978,147.972z M345.172,221.819l-42.256-0.23l0.125-23.169l42.264,0.198L345.172,221.819z"/>
	</g>
</g>
</svg>