<?xml version="1.0" standalone="no"?><svg xmlns="http://www.w3.org/2000/svg" viewBox="0 0 1440 320"><path fill="#0099ff" fill-opacity="1" d="M0,96L30,101.3C60,107,120,117,180,117.3C240,117,300,107,360,96C420,85,480,75,540,74.7C600,75,660,85,720,101.3C780,117,840,139,900,128C960,117,1020,75,1080,64C1140,53,1200,75,1260,80C1320,85,1380,75,1410,69.3L1440,64L1440,320L1410,320C1380,320,1320,320,1260,320C1200,320,1140,320,1080,320C1020,320,960,320,900,320C840,320,780,320,720,320C660,320,600,320,540,320C480,320,420,320,360,320C300,320,240,320,180,320C120,320,60,320,30,320L0,320Z"></path></svg>